<?xml version="1.0" encoding="utf-8"?>
<!-- Generator: Adobe Illustrator 21.0.2, SVG Export Plug-In . SVG Version: 6.00 Build 0)  -->
<svg version="1.1" id="Capa_1" xmlns="http://www.w3.org/2000/svg" xmlns:xlink="http://www.w3.org/1999/xlink" x="0px" y="0px"
	 viewBox="0 0 391 272.1" style="enable-background:new 0 0 391 272.1;" xml:space="preserve">
<g>
	<path d="M204,194.8l68.8,68.8l0.3,0.3c1.3,1.2,2.6,2.3,4.1,3.3c0.6,0.4,1.3,0.8,1.9,1.1l0.9,0.5c0.7,0.4,1.4,0.8,2.2,1.1
		c0.8,0.3,1.6,0.6,2.4,0.8l1,0.3c0.7,0.2,1.3,0.4,2,0.6c1.9,0.4,3.8,0.6,5.7,0.6c1.9,0,3.8-0.2,5.6-0.6c0.7-0.1,1.4-0.4,2.1-0.6
		l0.8-0.2c0.8-0.2,1.7-0.5,2.5-0.8s1.5-0.7,2.3-1.1l0.9-0.5c0.6-0.3,1.2-0.6,1.8-1c1.2-0.8,2.4-1.8,3.6-2.8l69.6-69.6
		c5.5-5.5,8.5-12.7,8.5-20.4s-3-15-8.5-20.4s-12.7-8.5-20.4-8.5c-7.7,0-15,3-20.5,8.5l-19.4,19.1V28.9c0-15.9-13-28.9-29-28.9
		s-28.9,13-28.9,28.9v144.4l-19.5-19.4c-5.5-5.5-12.7-8.5-20.5-8.5c-7.7,0-15,3-20.4,8.5c-5.5,5.4-8.5,12.7-8.5,20.4
		C195.5,182,198.5,189.3,204,194.8z M213,163c3-3,7.1-4.7,11.4-4.7c4.3,0,8.3,1.7,11.4,4.7l41.4,41.4V28.9c0-8.9,7.2-16.1,16.1-16.1
		s16.1,7.2,16.1,16.1v175.4l41.4-41.4c3-3,7.1-4.7,11.4-4.7s8.3,1.7,11.4,4.7c6.1,6.1,6.1,16.6,0,22.7L305.1,254l-0.5,0.5
		c-0.7,0.7-1.5,1.3-2.8,2.1l-1.5,0.8c-0.3,0.1-0.5,0.3-0.8,0.4s-0.6,0.2-0.9,0.3l-2,0.6c-1,0.2-2.1,0.3-3.1,0.3s-2.1-0.1-3.6-0.5
		l-1.6-0.5c-0.3-0.1-0.7-0.2-0.9-0.3c-0.3-0.1-0.6-0.3-0.8-0.4l-2-1.1c-0.9-0.6-1.7-1.2-2.4-2l-68.8-68.8C207,179.6,207,169,213,163
		z"/>
</g>
<g>
	<g>
		<path d="M187,77.3L118.2,8.5l-0.3-0.3c-1.3-1.2-2.6-2.3-4.1-3.3c-0.6-0.4-1.3-0.7-1.9-1.1L111,3.3c-0.7-0.4-1.4-0.8-2.2-1.1
			s-1.6-0.6-2.4-0.8l-1-0.3c-0.7-0.2-1.3-0.4-2-0.6c-1.9-0.4-3.8-0.6-5.7-0.6s-3.8,0.2-5.6,0.6c-0.7,0.1-1.4,0.4-2.1,0.6l-0.8,0.3
			c-0.8,0.2-1.7,0.5-2.5,0.8s-1.5,0.7-2.3,1.2l-0.9,0.5c-0.6,0.3-1.2,0.6-1.8,1c-1.2,0.8-2.4,1.8-3.6,2.8L8.5,77.3
			C3,82.8,0,90,0,97.8s3,15,8.5,20.4c5.5,5.5,12.7,8.5,20.5,8.5s15-3,20.4-8.5l19.5-19.5v144.4c0,16,13,28.9,28.9,28.9
			c16,0,28.9-13,28.9-28.9V98.7l19.5,19.4c5.5,5.5,12.7,8.5,20.4,8.5s15-3,20.4-8.5c5.5-5.5,8.5-12.7,8.5-20.4S192.5,82.8,187,77.3z
			 M177.9,109.1c-3,3-7.1,4.7-11.4,4.7s-8.3-1.7-11.4-4.7l-41.4-41.4v175.4c0,8.9-7.2,16.1-16.1,16.1s-16.1-7.2-16.1-16.1V67.7
			l-41.4,41.4c-3,3-7.1,4.7-11.4,4.7s-8.3-1.7-11.4-4.7c-6.1-6.1-6.1-16.6,0-22.7L85.7,18l0.5-0.5c0.7-0.7,1.5-1.3,2.8-2.1l1.5-0.8
			c0.3-0.1,0.5-0.3,0.8-0.4c0.3-0.1,0.6-0.2,0.9-0.3l2-0.6c1-0.2,2.1-0.3,3.1-0.3s2.1,0.1,3.6,0.5l1.6,0.5c0.3,0.1,0.7,0.2,0.9,0.3
			c0.3,0.1,0.6,0.3,0.8,0.4l2,1c0.9,0.6,1.7,1.2,2.4,2l68.8,68.8C184,92.5,184,103,177.9,109.1z"/>
	</g>
</g>
</svg>
