<svg id="Capa_1" data-name="Capa 1" xmlns="http://www.w3.org/2000/svg" viewBox="0 0 391 272.3"><defs><style>.cls-1{fill:#9d3968;}</style></defs><title>2arrows-a</title><path class="cls-1" d="M204,194.8l68.8,68.8.3.3a32.89,32.89,0,0,0,4.1,3.3,18.58,18.58,0,0,0,1.9,1.1l.9.5a15.06,15.06,0,0,0,2.2,1.1,22.5,22.5,0,0,0,2.4.8l1,.3,2,.6a27.6,27.6,0,0,0,5.7.6,26,26,0,0,0,5.6-.6,16.55,16.55,0,0,0,2.1-.6l.8-.2a19,19,0,0,0,4.8-1.9l.9-.5a16.18,16.18,0,0,0,1.8-1,43.93,43.93,0,0,0,3.6-2.8L382.5,195a28.73,28.73,0,0,0,0-40.8,28.85,28.85,0,0,0-40.9,0l-19.4,19.1V28.9a29,29,0,0,0-57.9,0V173.3l-19.5-19.4a29,29,0,0,0-49.4,20.4A29.35,29.35,0,0,0,204,194.8Zm9-31.8a16.12,16.12,0,0,1,11.4-4.7,16.29,16.29,0,0,1,11.4,4.7l41.4,41.4V28.9a16.1,16.1,0,0,1,32.2,0V204.3l41.4-41.4a16.12,16.12,0,0,1,11.4-4.7,16.05,16.05,0,0,1,11.4,27.4L305.1,254l-.5.5a14.44,14.44,0,0,1-2.8,2.1l-1.5.8c-.3.1-.5.3-.8.4l-.9.3-2,.6a16.28,16.28,0,0,1-3.1.3,13.34,13.34,0,0,1-3.6-.5l-1.6-.5a9.45,9.45,0,0,1-.9-.3,5.94,5.94,0,0,1-.8-.4l-2-1.1a11.6,11.6,0,0,1-2.4-2l-68.8-68.8C207,179.6,207,169,213,163Z" transform="translate(0 0.1)"/><path class="cls-1" d="M187,77.3,118.2,8.5l-.3-.3a32.89,32.89,0,0,0-4.1-3.3c-.6-.4-1.3-.7-1.9-1.1l-.9-.5a15.05,15.05,0,0,0-2.2-1.1,22.5,22.5,0,0,0-2.4-.8l-1-.3-2-.6a27.6,27.6,0,0,0-5.7-.6,26,26,0,0,0-5.6.6,16.55,16.55,0,0,0-2.1.6l-.8.3a24.13,24.13,0,0,0-2.5.8,12.68,12.68,0,0,0-2.3,1.2l-.9.5a16.18,16.18,0,0,0-1.8,1,43.93,43.93,0,0,0-3.6,2.8L8.5,77.3A28.66,28.66,0,0,0,0,97.8a28.26,28.26,0,0,0,8.5,20.4A28.66,28.66,0,0,0,29,126.7a28.26,28.26,0,0,0,20.4-8.5L68.9,98.7V243.1a28.9,28.9,0,0,0,57.8,0V98.7l19.5,19.4A28.85,28.85,0,1,0,187,77.3Zm-9.1,31.8a16.12,16.12,0,0,1-11.4,4.7,16.29,16.29,0,0,1-11.4-4.7L113.7,67.7V243.1a16.1,16.1,0,1,1-32.2,0V67.7L40.1,109.1a16.12,16.12,0,0,1-11.4,4.7,16.29,16.29,0,0,1-11.4-4.7,16.37,16.37,0,0,1,0-22.7L85.7,18l.5-.5A14.44,14.44,0,0,1,89,15.4l1.5-.8c.3-.1.5-.3.8-.4l.9-.3,2-.6a16.28,16.28,0,0,1,3.1-.3,13.34,13.34,0,0,1,3.6.5l1.6.5a9.44,9.44,0,0,1,.9.3,5.94,5.94,0,0,1,.8.4l2,1a11.6,11.6,0,0,1,2.4,2l68.8,68.8A15.79,15.79,0,0,1,177.9,109.1Z" transform="translate(0 0.1)"/></svg>