<svg id="Capa_1" data-name="Capa 1" xmlns="http://www.w3.org/2000/svg" viewBox="0 0 292.33 318.62"><defs><style>.cls-1{fill:#9d3968;}</style></defs><title>bell-a</title><path class="cls-1" d="M305.48,241.51l-3.43-1.81c-32.24-17-37.74-39.86-38.59-48.27l.17-74.87a104.55,104.55,0,0,0-83-93.27v-2a21.3,21.3,0,0,0-42.6,0v1.8A105.44,105.44,0,0,0,53.57,126.27c0,3.13.44,59.66.48,64.61-1.21,11.64-7.72,33.13-37.47,48.82l-3.43,1.81V292.3h102.2c5.53,15.2,23.12,26.32,44,26.32s38.43-11.11,44-26.32h102.2V241.51Zm-12.85,37.93H26V249.19c32.44-18.52,39.55-43.75,40.87-57.41l0-.67s-.48-61.58-.48-64.86a92.51,92.51,0,0,1,92.4-92.4c48.09,0,87.64,36.06,92,83.27l-.16,74.9c1,10.77,7.24,37.4,42,57.17v30.26Z" transform="translate(-13.15)"/></svg>