<svg id="Capa_1" data-name="Capa 1" xmlns="http://www.w3.org/2000/svg" viewBox="0 0 333.13 333.12"><defs><style>.cls-1{fill:#9d3968;}</style></defs><title>cogwheel-a</title><path class="cls-1" d="M320.27,133.59H291.89A127.21,127.21,0,0,0,279,102.41L299.39,82a12.88,12.88,0,0,0,0-18.17L270.92,35.37a13.16,13.16,0,0,0-18.18,0L232.48,55.63a127.32,127.32,0,0,0-31.79-13.25V12.86A12.87,12.87,0,0,0,187.84,0H147.58a12.87,12.87,0,0,0-12.85,12.85V42.38a127.26,127.26,0,0,0-32.22,13.5L81.19,34.56a13.15,13.15,0,0,0-18.17,0L34.56,63a12.86,12.86,0,0,0,0,18.17L56.2,102.84a127.23,127.23,0,0,0-12.67,30.75H12.85A12.87,12.87,0,0,0,0,146.45v40.24a12.87,12.87,0,0,0,12.85,12.85H43.52a127.27,127.27,0,0,0,13.26,31.79L35.37,252.74a12.86,12.86,0,0,0,0,18.18l28.46,28.47a13.15,13.15,0,0,0,18.17,0l21.56-21.56a127,127,0,0,0,31.18,12.9v29.54a12.87,12.87,0,0,0,12.85,12.85h40.25a12.87,12.87,0,0,0,12.85-12.85V290.73a126.85,126.85,0,0,0,30.74-12.67l20.5,20.5a13.17,13.17,0,0,0,18.17,0l28.46-28.46a12.86,12.86,0,0,0,0-18.18l-20.17-20.17a127.51,127.51,0,0,0,13.5-32.23h28.37a12.87,12.87,0,0,0,12.85-12.85V146.43A12.88,12.88,0,0,0,320.27,133.59Zm0,53.1H281.68l-1.12,5a114.51,114.51,0,0,1-15.7,37.51L262,233.59,289.48,261,261,289.49l-27.67-27.67L229,264.54a114.34,114.34,0,0,1-36.14,14.88l-5,1.12v39.74H147.59V280.53l-5-1.12A114.36,114.36,0,0,1,106,264.29l-4.35-2.76L72.91,290.3,44.45,261.83l28.66-28.64-2.8-4.36a114.59,114.59,0,0,1-15.46-37.1l-1.12-5H12.85V146.45H53.74l1.12-5a114.55,114.55,0,0,1,14.88-36.15l2.72-4.34L43.65,72.11,72.1,43.65l28.59,28.59,4.36-2.82a114.63,114.63,0,0,1,37.5-15.71l5-1.12V12.86h40.25V52.59l5,1.11A114.52,114.52,0,0,1,230,69.17l4.36,2.8,27.51-27.51,28.46,28.46-27.6,27.6,2.75,4.35a114.66,114.66,0,0,1,15.12,36.55l1.12,5h38.59v40.24h0ZM167.71,100.42a66.14,66.14,0,1,0,66.15,66.15A66.22,66.22,0,0,0,167.71,100.42Zm0,119.44A53.29,53.29,0,1,1,221,166.57,53.35,53.35,0,0,1,167.71,219.85Z" transform="translate(0 0)"/></svg>