<?xml version="1.0" encoding="utf-8"?>
<!-- Generator: Adobe Illustrator 21.0.2, SVG Export Plug-In . SVG Version: 6.00 Build 0)  -->
<svg version="1.1" id="Layer_1" xmlns="http://www.w3.org/2000/svg" xmlns:xlink="http://www.w3.org/1999/xlink" x="0px" y="0px"
	 viewBox="0 0 166.8 203.2" style="enable-background:new 0 0 166.8 203.2;" xml:space="preserve">
<style type="text/css">
	.st0{fill:none;stroke:#9D3968;stroke-width:7;stroke-miterlimit:10;}
	.st1{fill:#9D3968;}
</style>
<title>documents-a</title>
<path class="st0" d="M137.9,163.3v18.2c0,10.1-8.1,18.2-18.2,18.2l0,0h-98c-10.1,0-18.2-8.2-18.2-18.2V47.1
	c0-10.1,8.2-18.2,18.2-18.2h98c10.1,0,18.2,8.2,18.2,18.2l0,0l0,0L137.9,163.3L137.9,163.3z M163.2,137.9v18.2c0,8-5.3,15.1-13,17.4
	V45.1c0-15.8-12.8-28.6-28.6-28.6h-92c2.3-7.7,9.4-13,17.5-13h98c10.1,0,18.2,8.2,18.2,18.2l0,0l0,0V40l0,0L163.2,137.9z"/>
<rect x="24" y="131.8" class="st1" width="93.4" height="10.4"/>
<rect x="24" y="108.8" class="st1" width="93.4" height="10.4"/>
<rect x="24" y="85.8" class="st1" width="93.4" height="10.4"/>
<rect x="24" y="156.1" class="st1" width="93.4" height="10.4"/>
<rect x="24" y="62.8" class="st1" width="93.4" height="10.4"/>
</svg>
