<?xml version="1.0" encoding="utf-8"?>
<!-- Generator: Adobe Illustrator 21.0.2, SVG Export Plug-In . SVG Version: 6.00 Build 0)  -->
<svg version="1.1" id="Layer_1" xmlns="http://www.w3.org/2000/svg" xmlns:xlink="http://www.w3.org/1999/xlink" x="0px" y="0px"
	 viewBox="0 0 168.8 205.2" style="enable-background:new 0 0 168.8 205.2;" xml:space="preserve">
<style type="text/css">
	.st0{fill:none;stroke:#000000;stroke-width:7;stroke-miterlimit:10;}
</style>
<title>documents</title>
<path class="st0" d="M138.9,164.3v18.2c0,10.1-8.1,18.2-18.2,18.2l0,0h-98c-10.1,0-18.2-8.2-18.2-18.2V48.1
	c0-10.1,8.2-18.2,18.2-18.2h98c10.1,0,18.2,8.2,18.2,18.2l0,0V164.3L138.9,164.3z M164.2,138.9v18.2c0,8-5.3,15.1-13,17.4V46.1
	c0-15.8-12.8-28.6-28.6-28.6h-92c2.3-7.7,9.4-13,17.4-13h98c10.1,0,18.2,8.2,18.2,18.2l0,0V41l0,0V138.9z"/>
<rect x="25" y="132.8" width="93.4" height="10.4"/>
<rect x="25" y="109.8" width="93.4" height="10.4"/>
<rect x="25" y="86.7" width="93.4" height="10.4"/>
<rect x="25" y="157.1" width="93.4" height="10.4"/>
<rect x="25" y="63.7" width="93.4" height="10.4"/>
</svg>
