<svg id="Capa_1" data-name="Capa 1" xmlns="http://www.w3.org/2000/svg" viewBox="0 0 297.07 297.06"><defs><style>.cls-1{fill:#9d3968;}</style></defs><title>pencil-1-a</title><path class="cls-1" d="M288.76,47,250.07,8.31a28.29,28.29,0,0,0-40,0l-181.4,182L0,297.06l107.55-28.8L288.74,87a28.26,28.26,0,0,0,0-40ZM43.48,193.58,180.71,55.82l60.55,60.54-137.5,137.5ZM37.72,206l53.37,53.36-42.4,11.35L26.35,248.38ZM279.66,78l-19.49,19.5L199.59,36.91l19.54-19.52a15.81,15.81,0,0,1,21.85,0l38.69,38.7a15.41,15.41,0,0,1,0,21.87Z" transform="translate(0 -0.01)"/></svg>