<svg id="Capa_1" data-name="Capa 1" xmlns="http://www.w3.org/2000/svg" viewBox="0 0 263.18 316.82"><defs><style>.cls-1{fill:#9d3968;}</style></defs><title>user-1-a</title><path class="cls-1" d="M213.31,185.88l-.81-.37c-1.93-.88-3.88-1.71-5.87-2.49q-3.25-1.3-6.59-2.42c-1.76-.58-3.54-1.12-5.33-1.65-2.73-.79-5.49-1.5-8.33-2.13-1-.2-1.95-.39-2.92-.57l-.67-.13c-1.68-.33-3.36-.62-5.06-.87l-.49-.08h-.05l-.49-.06c-1.41-.21-2.82-.41-4.29-.58l-5-.41a134.79,134.79,0,0,0-18.51.05l-1.77.15-.82.06-2.06.19c-1.9.2-3.78.46-5.66.76l-.55.08c-1.29.21-2.57.45-3.84.69s-2.8.53-4.18.83c-2.69.6-5.35,1.29-7.94,2-2.06.59-4.09,1.24-6,1.9l-1.32.48c-4,1.43-8.07,3.08-12,4.88l-1,.49,0,0A132.12,132.12,0,0,0,26.82,305.39c0,1.16.08,2.29.15,3.44l.34,8H289.5l.35-7.9c.08-1.17.15-2.33.15-3.53A131.93,131.93,0,0,0,213.31,185.88ZM39.68,304a119.12,119.12,0,0,1,68.09-105.88l1.31-.51.15-.15c3.19-1.46,6.49-2.79,9.83-4l1.06-.38c1.82-.63,3.63-1.21,5.51-1.74,2.35-.69,4.74-1.3,7.13-1.84,1.24-.26,2.48-.51,3.76-.75,1-.19,2-.38,3-.54l.5-.09c1.84-.29,3.68-.55,5.52-.75l4.2-.37a112.82,112.82,0,0,1,17.14,0l4.09.34c1,.12,2,.25,3.25.42l1.47.21c1.54.23,3.07.49,4.61.78l.72.13c.87.16,1.73.33,2.54.5,2.53.55,5,1.21,7.49,1.92,1.63.48,3.25,1,4.83,1.49q3,1,5.95,2.17t5.58,2.37l.32.15A119.06,119.06,0,0,1,277.13,304H39.68Zm87-146.37c1,.4,2,.76,3,1.11l2.09.76c.8.31,1.61.61,2.44.87a81.46,81.46,0,0,0,23.82,3.71h.65a81.59,81.59,0,0,0,8.28-.42c.93-.09,1.82-.24,2.73-.39l2-.3c1.13-.15,2.26-.32,3.45-.55.81-.17,1.59-.38,2.38-.59l2.2-.56c1.09-.26,2.17-.53,3.25-.86.67-.21,1.32-.46,2-.7l1.77-.64c1.26-.44,2.53-.89,3.8-1.42.49-.21,1-.44,1.45-.68l.57-.28c1.74-.78,3.48-1.57,5.2-2.5l1.12-.67c1.93-1.09,3.85-2.22,5.8-3.55,1-.68,2-1.45,2.92-2.2l3.29-2.56a81.4,81.4,0,0,0,29.79-62.48l0-.68A82,82,0,0,0,76.82,76.86l-.07,1.07c-.1,1.36-.19,2.71-.19,4.1A81.87,81.87,0,0,0,126.64,157.6ZM89.56,78.82l.08-1.16a69.2,69.2,0,0,1,68.95-64.81c38.15,0,69.18,31,69.21,68.59l0,.68a69.17,69.17,0,0,1-25.24,53.27l-3.05,2.33c-.68.55-1.37,1.1-2.22,1.7-1.54,1-3.18,2-4.83,2.93l-.92.56c-1.39.75-2.85,1.41-4.36,2.08l-1.7.82c-1,.4-2,.76-3,1.11l-2.12.76c-.41.15-.83.32-1.23.44-.79.24-1.6.43-2.4.63l-2.56.66c-.55.15-1.1.3-1.59.4-.85.17-1.73.28-2.6.4l-2.44.37c-.59.1-1.18.21-1.85.27-2.14.23-4.29.35-6.48.37h-.62A68.86,68.86,0,0,1,138,148.09c-.57-.18-1.13-.4-1.69-.62l-2.42-.88c-.75-.26-1.5-.52-2.22-.82A69.08,69.08,0,0,1,89.4,82C89.4,80.95,89.48,79.88,89.56,78.82Z" transform="translate(-26.82 0)"/></svg>